<?xml version="1.0" encoding="UTF-8" standalone="no"?>
<!-- Created with Inkscape (http://www.inkscape.org/) -->

<svg
   xmlns:dc="http://purl.org/dc/elements/1.1/"
   xmlns:cc="http://creativecommons.org/ns#"
   xmlns:rdf="http://www.w3.org/1999/02/22-rdf-syntax-ns#"
   xmlns:svg="http://www.w3.org/2000/svg"
   xmlns="http://www.w3.org/2000/svg"
   xmlns:sodipodi="http://sodipodi.sourceforge.net/DTD/sodipodi-0.dtd"
   xmlns:inkscape="http://www.inkscape.org/namespaces/inkscape"
   version="1.1"
   id="svg3680"
   xml:space="preserve"
   width="6666.6665"
   height="6666.6665"
   viewBox="0 0 6666.6665 6666.6665"
   sodipodi:docname="AthosIoT.svg"
   inkscape:version="0.92.1 r15371"><metadata
     id="metadata3686"><rdf:RDF><cc:Work
         rdf:about=""><dc:format>image/svg+xml</dc:format><dc:type
           rdf:resource="http://purl.org/dc/dcmitype/StillImage" /><dc:title></dc:title></cc:Work></rdf:RDF></metadata><defs
     id="defs3684"><clipPath
       clipPathUnits="userSpaceOnUse"
       id="clipPath3696"><path
         d="M 0,5000 H 5000 V 0 H 0 Z"
         id="path3694"
         inkscape:connector-curvature="0" /></clipPath></defs><sodipodi:namedview
     pagecolor="#ffffff"
     bordercolor="#666666"
     borderopacity="1"
     objecttolerance="10"
     gridtolerance="10"
     guidetolerance="10"
     inkscape:pageopacity="0"
     inkscape:pageshadow="2"
     inkscape:window-width="1690"
     inkscape:window-height="1218"
     id="namedview3682"
     showgrid="false"
     inkscape:zoom="0.12996038"
     inkscape:cx="3231.087"
     inkscape:cy="3954.5881"
     inkscape:window-x="115"
     inkscape:window-y="52"
     inkscape:window-maximized="0"
     inkscape:current-layer="g3712" /><g
     id="g3688"
     inkscape:groupmode="layer"
     inkscape:label="Ether Solutions"
     transform="matrix(1.3333333,0,0,-1.3333333,0,6666.6667)"><g
       clip-path="url(#clipPath3696)"
       id="g3692"><g
         transform="translate(2189.7759,3472.7456)"
         id="g3698"><path
           inkscape:connector-curvature="0"
           id="path3700"
           style="fill:#0cc1ff;fill-opacity:1;fill-rule:nonzero;stroke:none"
           d="M 0,0 Z" /></g><g
         transform="translate(2948.4336,2846.5698)"
         id="g3702"><path
           inkscape:connector-curvature="0"
           id="path3704"
           style="fill:#0cc1ff;fill-opacity:1;fill-rule:nonzero;stroke:none"
           d="m 0,0 c -2.674,-2.298 -5.503,-4.53 -8.239,-6.803 -23.648,66.098 -59.586,135.539 -106.703,204.244 11.618,81.526 13.129,158.851 5.316,227.969 35.664,-8.644 68.456,-19.906 97.679,-33.735 C 61.861,356.746 107.879,307.746 121.134,249.968 139.154,171.413 96.135,82.639 0,0 m -16.11,-53.771 c 34.858,-121.886 21.977,-219.69 -36.27,-275.396 -33.866,-32.389 -80.867,-48.812 -139.696,-48.812 -47.342,0 -100.274,10.842 -156.124,31.624 44.907,52.333 86.826,116.267 122.972,189.051 78.992,31.823 148.785,70.716 205.976,113.745 1.036,-3.401 2.172,-6.823 3.142,-10.212 m -594.025,-424.391 c -16.585,0 -32.791,2.443 -48.17,7.26 -76.913,24.089 -131.84,106.031 -154.661,230.733 -0.779,4.256 -1.408,8.626 -2.104,12.945 49.63,-9.562 103.97,-14.546 161.5,-14.546 23.659,0 47.91,0.953 72.541,2.666 65.139,-49.716 131.557,-88.768 195.484,-115.946 -74.834,-79.501 -154.084,-123.112 -224.59,-123.112 m -328.678,312.741 c -73.807,34.927 -119.826,83.929 -133.081,141.708 -18.021,78.557 24.999,167.331 121.135,249.971 2.674,2.298 5.502,4.53 8.238,6.801 23.647,-66.098 59.586,-135.538 106.703,-204.244 -11.619,-81.525 -13.129,-158.851 -5.315,-227.968 -35.665,8.644 -68.459,19.903 -97.68,33.732 m 199.159,519.411 c -20.383,-44.287 -38.644,-91.502 -54.184,-141.117 -16.13,-51.496 -28.388,-102.546 -36.964,-152.273 -40.625,62.1 -72.303,125.362 -93.52,187.036 52.56,40.562 115.119,76.505 184.668,106.354 m 158.846,210.131 c 21.818,-9.007 44.019,-19.47 66.461,-31.381 37.489,-19.897 74.901,-43.502 111.592,-70.183 -47.93,-4.779 -97.227,-12.691 -147.241,-24.164 -50.575,-11.602 -98.972,-26.096 -144.634,-42.922 33.498,63.697 71.998,120.99 113.822,168.65 M -817.223,2.554 c 29.742,-40.763 63.373,-81.079 100.67,-120.077 35.431,-37.047 72.203,-70.795 109.565,-101.116 -15.617,-0.718 -31.17,-1.191 -46.582,-1.191 -59.067,0 -114.493,5.342 -164.798,15.62 -8.03,64.052 -7.613,133.974 1.145,206.764 m 380.827,-309.04 c -37.494,19.899 -74.912,43.503 -111.604,70.187 47.928,4.778 97.224,12.689 147.236,24.163 50.575,11.602 98.974,26.097 144.635,42.922 -33.498,-63.696 -71.997,-120.987 -113.82,-168.646 -21.815,9.006 -44.011,19.467 -66.447,31.374 m 316.438,472.144 C -79.333,103.556 -47.655,40.294 -26.437,-21.377 -79,-61.94 -141.558,-97.885 -211.104,-127.732 c 20.382,44.287 38.642,91.502 54.181,141.117 16.13,51.496 28.388,102.546 36.965,152.273 M -177.859,19.942 c -17.511,-55.907 -38.991,-109.721 -63.545,-160.093 -51.771,-20.338 -106.875,-37.436 -164.265,-50.6 -56.758,-13.021 -113.17,-21.601 -168.574,-25.875 -43.856,34.012 -86.406,72.394 -126.453,114.268 -41.876,43.785 -79.487,89.712 -112.199,136.535 8.548,56.477 21.885,114.32 39.995,172.138 17.51,55.908 38.989,109.721 63.544,160.094 51.771,20.336 106.877,37.434 164.265,50.599 56.758,13.021 113.169,21.6 168.577,25.875 43.854,-34.011 86.404,-72.393 126.45,-114.266 41.876,-43.787 79.487,-89.714 112.199,-136.538 -8.548,-56.475 -21.886,-114.318 -39.994,-172.137 m 44.322,203.761 c -29.742,40.764 -63.373,81.08 -100.67,120.078 -35.431,37.045 -72.201,70.795 -109.563,101.115 15.618,0.717 31.17,1.191 46.583,1.191 h 0.01 c 59.061,0 114.483,-5.343 164.786,-15.621 8.03,-64.05 7.612,-133.974 -1.146,-206.763 m -207.085,480.716 c 16.582,0 32.788,-2.442 48.167,-7.259 76.912,-24.089 131.84,-106.033 154.662,-230.734 0.779,-4.256 1.406,-8.625 2.104,-12.943 -49.629,9.562 -103.971,14.545 -161.5,14.545 -23.658,0 -47.909,-0.952 -72.538,-2.667 -65.14,49.718 -131.557,88.77 -195.484,115.95 74.834,79.499 154.082,123.107 224.589,123.108 M 142.519,254.875 c -21.757,94.843 -118.494,162.475 -255.153,193.708 -20.477,138.71 -80.392,240.426 -173.263,269.515 -17.778,5.568 -36.079,8.262 -54.728,8.262 -80.484,-0.002 -167.423,-50.193 -246.349,-136.176 -61.105,23.6 -119.475,35.992 -171.684,35.992 v -21.941 c 47.336,0 100.26,-10.839 156.104,-31.619 -44.909,-52.334 -86.831,-116.27 -122.978,-189.054 -78.992,-31.824 -148.784,-70.716 -205.976,-113.747 -1.036,3.403 -2.172,6.823 -3.141,10.213 -34.859,121.886 -21.978,219.69 36.268,275.395 33.861,32.384 80.863,48.807 139.698,48.812 l 0.025,21.941 h -0.027 c -62.338,-0.006 -115.919,-17.654 -154.86,-54.896 -69.897,-66.847 -78.794,-183.551 -36.525,-315.931 -108.096,-87.33 -164.834,-189.7 -143.209,-283.967 21.758,-94.842 118.494,-162.472 255.152,-193.706 20.478,-138.711 80.394,-240.427 173.265,-269.515 17.777,-5.569 36.077,-8.263 54.727,-8.263 80.487,0 167.426,50.193 246.354,136.179 61.113,-23.604 119.493,-35.996 171.705,-35.996 62.341,0 115.921,17.654 154.861,54.896 69.897,66.848 78.794,183.55 36.525,315.931 108.096,87.329 164.834,189.699 143.209,283.967" /></g><g
         transform="translate(1631.2002,1785.709)"
         id="g3712"><flowRoot
           xml:space="preserve"
           id="flowRoot3786"
           style="font-style:normal;font-weight:normal;font-size:533.33337402px;line-height:1.25;font-family:sans-serif;letter-spacing:0px;word-spacing:0px;fill:#000000;fill-opacity:1;stroke:none"
           transform="matrix(0.75000002,0,0,-0.75000002,-1538.8644,3214.2912)"><flowRegion
             id="flowRegion3788"><rect
               id="rect3790"
               width="623.93597"
               height="675.41333"
               x="2985.4368"
               y="2382.6951" /></flowRegion><flowPara
             id="flowPara3792">A</flowPara></flowRoot></g></g></g></svg>